# xmcd CD database file
#
# Track frame offsets:
#	225
#	18652
#	38691
#	57373
#	78492
#	98259
#	118809
#	157537
#	172035
#	201247
#	229573
#	242273
#	276242
#	297580
#
# Disc length: 4425 seconds
#
# Revision: 0
# Processed by: cddbd v1.4PL0 Copyright (c) Steve Scherf et al.
# Submitted via: CDex 1.50beta10
#
DISCID=b311460e
DTITLE=Eddy Clearwater - Chicago Daily Blues
DYEAR=1999
DGENRE=Blues
TTITLE0=2 x 9
TTITLE1=Chicago Daily Blues
TTITLE2=A Little Bit Of Blues, A Little Bit Of Rock and Roll
TTITLE3=The World is In A Bad Situation
TTITLE4=Payments On My Woman
TTITLE5=Blast Off
TTITLE6=Came Up The Hard Way
TTITLE7=Nashville Road
TTITLE8=Caldonia
TTITLE9=Chicago Daily Blues (Live Version)
TTITLE10=You Don't Have To Go
TTITLE11=The Things I Used To Do
TTITLE12=The Twist
TTITLE13=Johnny B. Goode
EXTD=YEAR: 1999
EXTT0=
EXTT1=
EXTT2=
EXTT3=
EXTT4=
EXTT5=
EXTT6=
EXTT7=
EXTT8=
EXTT9=
EXTT10=
EXTT11=
EXTT12=
EXTT13=
PLAYORDER=
